<mxfile host="app.diagrams.net" modified="2021-08-25T02:42:28.749Z" agent="5.0 (Windows NT 10.0; Win64; x64) AppleWebKit/537.36 (KHTML, like Gecko) Chrome/92.0.4515.159 Safari/537.36" etag="JDluHMp9b0GRRmCHxPXB" version="14.9.9" type="github">
  <diagram id="2nUJ8VmL6jhaIJb3hUvi" name="Page-1">
    <mxGraphModel dx="868" dy="450" grid="1" gridSize="10" guides="1" tooltips="1" connect="1" arrows="1" fold="1" page="1" pageScale="1" pageWidth="827" pageHeight="1169" math="0" shadow="0">
      <root>
        <mxCell id="0" />
        <mxCell id="1" parent="0" />
        <mxCell id="z-i00-3-ZQXxRpTwoD0i-7" style="edgeStyle=orthogonalEdgeStyle;rounded=0;orthogonalLoop=1;jettySize=auto;html=1;entryX=0;entryY=0.5;entryDx=0;entryDy=0;" edge="1" parent="1" source="z-i00-3-ZQXxRpTwoD0i-1" target="z-i00-3-ZQXxRpTwoD0i-4">
          <mxGeometry relative="1" as="geometry" />
        </mxCell>
        <mxCell id="z-i00-3-ZQXxRpTwoD0i-1" value="" style="whiteSpace=wrap;html=1;aspect=fixed;" vertex="1" parent="1">
          <mxGeometry x="400" y="140" width="80" height="80" as="geometry" />
        </mxCell>
        <mxCell id="z-i00-3-ZQXxRpTwoD0i-3" value="" style="edgeStyle=orthogonalEdgeStyle;rounded=0;orthogonalLoop=1;jettySize=auto;html=1;" edge="1" parent="1" source="z-i00-3-ZQXxRpTwoD0i-2" target="z-i00-3-ZQXxRpTwoD0i-1">
          <mxGeometry relative="1" as="geometry" />
        </mxCell>
        <mxCell id="z-i00-3-ZQXxRpTwoD0i-2" value="" style="rounded=1;whiteSpace=wrap;html=1;" vertex="1" parent="1">
          <mxGeometry x="180" y="190" width="120" height="60" as="geometry" />
        </mxCell>
        <mxCell id="z-i00-3-ZQXxRpTwoD0i-6" value="" style="edgeStyle=orthogonalEdgeStyle;rounded=0;orthogonalLoop=1;jettySize=auto;html=1;" edge="1" parent="1" source="z-i00-3-ZQXxRpTwoD0i-4" target="z-i00-3-ZQXxRpTwoD0i-5">
          <mxGeometry relative="1" as="geometry" />
        </mxCell>
        <mxCell id="z-i00-3-ZQXxRpTwoD0i-4" value="" style="ellipse;whiteSpace=wrap;html=1;" vertex="1" parent="1">
          <mxGeometry x="640" y="170" width="110" height="80" as="geometry" />
        </mxCell>
        <mxCell id="z-i00-3-ZQXxRpTwoD0i-5" value="" style="shape=step;perimeter=stepPerimeter;whiteSpace=wrap;html=1;fixedSize=1;" vertex="1" parent="1">
          <mxGeometry x="520" y="330" width="120" height="80" as="geometry" />
        </mxCell>
      </root>
    </mxGraphModel>
  </diagram>
</mxfile>
